# xmcd CD database file
#
# Track frame offsets:
#	150
#	19233
#	32527
#	44393
#	61051
#	77110
#	89443
#	101044
#	113067
#	124776
#	136875
#	146484
#
# Disc length: 2233 seconds
#
# Revision: 0
# Processed by: cddbd v1.5.2PL0 Copyright (c) Steve Scherf et al.
# Submitted via: CDex 1.70beta2
#
DISCID=9b08b70c
DTITLE=Scrivs and the Scallawags - Cdn. - Scrivs and the Scallawags
DYEAR=1900
DGENRE=Country
TTITLE0=Hobo's Lullaby
TTITLE1=Hello Pretty Lady
TTITLE2=Lay Down Beside Me
TTITLE3=I Wish It Was That Easy
TTITLE4=Your Jukebox
TTITLE5=Between This Time and Next
TTITLE6=Reserve Me A Table
TTITLE7=I Never Knew Love
TTITLE8=Waltz Across Texas
TTITLE9=One More Country Song
TTITLE10=Gonna Walk That Line
TTITLE11=Maole On the Hill
EXTD=
EXTT0=
EXTT1=
EXTT2=
EXTT3=
EXTT4=
EXTT5=
EXTT6=
EXTT7=
EXTT8=
EXTT9=
EXTT10=
EXTT11=
PLAYORDER=
